<svg xmlns="http://www.w3.org/2000/svg" viewBox="0 0 114.97 114.97"><defs><style>.cls-1{fill:#ffffff;}.cls-2{fill:#e4c089;}.cls-3{fill:#808285;}</style></defs><g id="Layer_2" data-name="Layer 2"><g id="Layer_1-2" data-name="Layer 1"><path class="cls-1" d="M18.89,83.22V70.76a.22.22,0,0,1,.24-.24h3.72c.54,0,.85,0,1,0,3.18.31,4.24,3.23,3.09,5.23a.55.55,0,0,0,.13.74,4,4,0,0,1-2.7,6.95H19.13A.22.22,0,0,1,18.89,83.22Zm2.74-1.83h2.79c2.35,0,2.35-3.71,0-3.71H22.83a.25.25,0,0,1-.24-.24V75.83a.23.23,0,0,1,.24-.24h.07a4.4,4.4,0,0,0,1-.06,1.51,1.51,0,0,0-.55-3H21.63a.49.49,0,0,0-.52.52v7.78A.48.48,0,0,0,21.63,81.39Z"/><path class="cls-1" d="M30,70.76a.22.22,0,0,1,.24-.24H32a.22.22,0,0,1,.24.24v8.32a.22.22,0,0,1-.24.24H30.23a.22.22,0,0,1-.24-.24Zm0,10.87a.23.23,0,0,1,.24-.24h7.9a.23.23,0,0,1,.24.24v1.59a.22.22,0,0,1-.24.24h-7.9a.22.22,0,0,1-.24-.24Z"/><path class="cls-1" d="M38.87,83.24,44.71,70.5a.34.34,0,0,1,.28-.17.3.3,0,0,1,.26.17l5.84,12.74c.06.13,0,.22-.14.22H49.13a.4.4,0,0,1-.35-.22l-.52-1.13a.83.83,0,0,0-.74-.46H43.79c-.15,0-.2-.09-.15-.22l.76-1.63a.35.35,0,0,1,.33-.22h1.85c.32,0,.43-.18.3-.48l-1.67-3.62c-.07-.15-.15-.23-.22-.23s-.15.08-.22.23l-3.59,7.76a.37.37,0,0,1-.33.22H39C38.87,83.46,38.81,83.37,38.87,83.24Z"/><path class="cls-1" d="M52.58,70.52h1.73a.23.23,0,0,1,.25.24v5.12c0,.19,0,.26.11.26s.13,0,.22-.15l4.23-5.29a.53.53,0,0,1,.39-.18h2.11c.15,0,.18.07.09.18l-6.82,8.57a1.48,1.48,0,0,0-.33.92v3a.23.23,0,0,1-.25.24H52.58a.22.22,0,0,1-.24-.24V70.76A.22.22,0,0,1,52.58,70.52Zm5,8.25,1-1.28c.1-.11.23-.11.3,0l4.49,5.79c.08.11,0,.18-.11.18H61.12a.52.52,0,0,1-.39-.18l-3.14-4.12A.3.3,0,0,1,57.61,78.77Z"/><path class="cls-1" d="M64.19,70.52H66a.4.4,0,0,1,.34.22L71.22,81.3a.54.54,0,0,1,0,.43l-.8,1.75a.27.27,0,0,1-.25.17.3.3,0,0,1-.28-.17L64,70.74C64,70.61,64,70.52,64.19,70.52Zm6.75,6.73,3-6.51a.38.38,0,0,1,.35-.22h1.81c.15,0,.2.09.15.22l-4.16,9c-.06.13-.15.13-.21,0l-1-2.09A.66.66,0,0,1,70.94,77.25Z"/><path class="cls-1" d="M77.21,72.35V70.76a.23.23,0,0,1,.25-.24h7.89a.22.22,0,0,1,.24.24v1.59a.22.22,0,0,1-.24.24H77.46A.23.23,0,0,1,77.21,72.35Zm0,3.85a.23.23,0,0,1,.25-.24h7.89a.22.22,0,0,1,.24.24v1.59a.23.23,0,0,1-.24.24H77.46a.23.23,0,0,1-.25-.24Zm.25,5.19h7.89a.23.23,0,0,1,.24.24v1.59a.22.22,0,0,1-.24.24H77.46a.23.23,0,0,1-.25-.24V81.63A.23.23,0,0,1,77.46,81.39Z"/><path class="cls-1" d="M87.19,70.76a.22.22,0,0,1,.24-.24h1.73a.22.22,0,0,1,.24.24v8.32a.22.22,0,0,1-.24.24H87.43a.22.22,0,0,1-.24-.24Zm0,10.87a.23.23,0,0,1,.24-.24h7.89a.23.23,0,0,1,.24.24v1.59a.22.22,0,0,1-.24.24H87.43a.22.22,0,0,1-.24-.24Z"/><path class="cls-1" d="M43.1,95.15a2.26,2.26,0,0,1-.9-.18,2.34,2.34,0,0,1-.71-.48,2.15,2.15,0,0,1-.47-.71A2.39,2.39,0,0,1,41,92a2.3,2.3,0,0,1,.47-.72,2.15,2.15,0,0,1,.71-.47,2.26,2.26,0,0,1,.9-.18,2.18,2.18,0,0,1,.89.18,2.09,2.09,0,0,1,.72.47,2.3,2.3,0,0,1,.47.72,2.39,2.39,0,0,1,0,1.77,2.15,2.15,0,0,1-.47.71A2.27,2.27,0,0,1,44,95,2.18,2.18,0,0,1,43.1,95.15Zm0-.78a1.47,1.47,0,0,0,.56-.1,1.66,1.66,0,0,0,.46-.3,1.54,1.54,0,0,0,.31-.47,1.7,1.7,0,0,0,.11-.61,1.64,1.64,0,0,0-.11-.6,1.54,1.54,0,0,0-.31-.47,1.31,1.31,0,0,0-.46-.3,1.48,1.48,0,0,0-1.12,0,1.31,1.31,0,0,0-.46.3,1.54,1.54,0,0,0-.31.47,1.64,1.64,0,0,0-.11.6,1.7,1.7,0,0,0,.11.61,1.54,1.54,0,0,0,.31.47,1.66,1.66,0,0,0,.46.3A1.47,1.47,0,0,0,43.1,94.37Z"/><path class="cls-1" d="M48.42,90.74h.94l1.74,2.89h0l0-.83V90.74h.8v4.31h-.85l-1.83-3h0l0,.83v2.22h-.8Z"/><path class="cls-1" d="M55.18,90.74H56v3.54h1.83v.77H55.18Z"/><path class="cls-1" d="M60.8,90.74h.82v4.31H60.8Z"/><path class="cls-1" d="M64.89,90.74h1l1.73,2.89h.05l-.05-.83V90.74h.81v4.31h-.86l-1.83-3h0l0,.83v2.22h-.8Z"/><path class="cls-1" d="M72.47,91.51v1h1.72v.77H72.47v1h1.92v.77H71.65V90.74h2.74v.77Z"/><path class="cls-1" d="M45.15,102.37a1.55,1.55,0,0,1-.53-.08,1.53,1.53,0,0,1-.46-.23,1.48,1.48,0,0,1-.37-.38,1.73,1.73,0,0,1-.25-.53l.77-.3a1.13,1.13,0,0,0,.29.54.75.75,0,0,0,.55.21,1,1,0,0,0,.25,0,.68.68,0,0,0,.21-.1.46.46,0,0,0,.15-.16.51.51,0,0,0,.05-.22.54.54,0,0,0,0-.22.73.73,0,0,0-.14-.18,2,2,0,0,0-.26-.16,3.31,3.31,0,0,0-.4-.16l-.26-.1a1.81,1.81,0,0,1-.35-.16,1.59,1.59,0,0,1-.33-.25,1.36,1.36,0,0,1-.23-.34.92.92,0,0,1-.1-.44,1.2,1.2,0,0,1,.1-.47,1.11,1.11,0,0,1,.29-.39,1.2,1.2,0,0,1,.44-.26,1.69,1.69,0,0,1,.56-.09,1.62,1.62,0,0,1,.57.09,1.18,1.18,0,0,1,.4.22,1.27,1.27,0,0,1,.27.3,1.2,1.2,0,0,1,.15.3l-.72.3a.74.74,0,0,0-.22-.32.59.59,0,0,0-.43-.15.74.74,0,0,0-.44.13.37.37,0,0,0-.18.32.42.42,0,0,0,.17.33,1.69,1.69,0,0,0,.54.26l.27.09a2.9,2.9,0,0,1,.47.21,1.5,1.5,0,0,1,.37.28,1.1,1.1,0,0,1,.23.37,1.21,1.21,0,0,1,.08.48,1.18,1.18,0,0,1-.13.58,1.35,1.35,0,0,1-.35.4,1.58,1.58,0,0,1-.47.23A1.61,1.61,0,0,1,45.15,102.37Z"/><path class="cls-1" d="M50.56,102.28V98.74H49.35V98h3.22v.78h-1.2v3.54Z"/><path class="cls-1" d="M57.42,102.37a2.35,2.35,0,0,1-.89-.17,2.27,2.27,0,0,1-.72-.48,2.25,2.25,0,0,1-.47-.72,2.36,2.36,0,0,1,0-1.76,2.25,2.25,0,0,1,.47-.72,2.27,2.27,0,0,1,.72-.48,2.35,2.35,0,0,1,.89-.17,2.44,2.44,0,0,1,.9.17,2.34,2.34,0,0,1,.71.48,2.09,2.09,0,0,1,.47.72,2.36,2.36,0,0,1,0,1.76,2.09,2.09,0,0,1-.47.72,2.34,2.34,0,0,1-.71.48A2.44,2.44,0,0,1,57.42,102.37Zm0-.77a1.47,1.47,0,0,0,1-.41,1.49,1.49,0,0,0,.31-.46,1.75,1.75,0,0,0,0-1.22,1.49,1.49,0,0,0-.31-.46,1.47,1.47,0,0,0-2,0,1.49,1.49,0,0,0-.31.46,1.75,1.75,0,0,0,0,1.22,1.49,1.49,0,0,0,.31.46,1.47,1.47,0,0,0,1,.41Z"/><path class="cls-1" d="M62.74,98h1.57a1.59,1.59,0,0,1,.59.11,1.15,1.15,0,0,1,.45.28,1.19,1.19,0,0,1,.3.43,1.63,1.63,0,0,1,.1.55,1.05,1.05,0,0,1-.07.4,1.27,1.27,0,0,1-.2.34,1.58,1.58,0,0,1-.3.28,1.66,1.66,0,0,1-.35.18v0L66,102.23v0H65l-1.11-1.62h-.38v1.62h-.81Zm1.56,2a.65.65,0,0,0,.46-.17.55.55,0,0,0,.18-.43.85.85,0,0,0,0-.22.62.62,0,0,0-.12-.19.6.6,0,0,0-.2-.14.67.67,0,0,0-.26-.05h-.77v1.2Z"/><path class="cls-1" d="M69.69,98.74v1h1.73v.77H69.69v1h1.92v.78H68.88V98h2.73v.78Z"/><path class="cls-2" d="M15.09,57.57h3.75V59H16.69v1.49h2V62h-2v1.85h2.17v1.46h-3.8Z"/><path class="cls-2" d="M23.72,65.28H19.48v-2.4H21.1v.94h1V62.6l-2.56-1.94V57.57h4.14v2.29H22.21V59H21.15v1L23.72,62Z"/><path class="cls-2" d="M29,59H27.56v6.24H25.93V59H24.42V57.57H29Z"/><path class="cls-2" d="M29.67,65.28V63.55H31.3v1.73Z"/><path class="cls-2" d="M84.86,65.28H80.55V62.66l2.69-2.44V59H82.18v.82H80.63V58.64l1.07-1.07h3.16v3.24L82.18,63.2v.62h2.68Z"/><path class="cls-2" d="M90.06,64.22l-1.15,1.06H85.49V58.63l1.15-1.06h3.42Zm-3-5.18v4.78h1.33V59Z"/><path class="cls-2" d="M94.93,65.28h-4.3V62.66l2.69-2.44V59H92.25v.82H90.71V58.64l1.07-1.07h3.15v3.24L92.25,63.2v.62h2.68Z"/><path class="cls-2" d="M100.13,64.22,99,65.28H95.56V58.63l1.15-1.06h3.42ZM97.18,59v4.78h1.34V59Z"/><path class="cls-2" d="M99.87,67.88H15.36a.25.25,0,0,1-.27-.23.26.26,0,0,1,.27-.23H99.87a.25.25,0,0,1,.26.23A.25.25,0,0,1,99.87,67.88Z"/><path class="cls-2" d="M95.45,86.76H19a.23.23,0,0,1-.23-.23A.23.23,0,0,1,19,86.3H95.45a.24.24,0,0,1,.23.23A.23.23,0,0,1,95.45,86.76Z"/><path class="cls-1" d="M57.48,115A57.49,57.49,0,1,1,115,57.48,57.55,57.55,0,0,1,57.48,115ZM57.48.5a57,57,0,1,0,57,57A57,57,0,0,0,57.48.5Z"/><path class="cls-3" d="M58.33,109.37v-.5l1,0,0,.5Zm-3,0-1,0,0-.5,1,0Zm7-.18-.05-.5,1-.1.06.5Zm-11-.14-1-.13.07-.49c.32,0,.65.09,1,.12Zm15-.39-.08-.49,1-.18.09.49Q66.82,108.55,66.33,108.62Zm-19-.24-1-.2.11-.49,1,.2Zm22.94-.59-.12-.49,1-.25.13.48Zm-26.85-.34-1-.28.14-.48,1,.28Zm30.7-.8-.16-.47,1-.33.17.47Zm-34.53-.44-.94-.36.18-.46.94.35Zm38.3-1-.2-.46.92-.4.2.45Zm-42-.53-.91-.43.22-.45c.3.14.6.29.9.42Zm45.65-1.2L81.3,103l.88-.48.24.44Zm-49.23-.62-.88-.49.26-.43.86.49ZM85,101.47l-.26-.42.84-.54.27.42Zm-56.15-.69-.84-.57.29-.41.82.56ZM88.35,99.2l-.3-.4.79-.6.31.4ZM25.6,98.43l-.78-.63.31-.38.78.62Zm65.88-1.74-.32-.38.74-.66.34.37Zm-68.95-.85-.74-.69.35-.36.73.68Zm71.89-1.91-.36-.35c.23-.23.47-.47.69-.71l.37.34ZM19.67,93,19,92.28l.37-.34.68.73ZM97.13,91l-.38-.32.63-.76.39.31C97.56,90.45,97.35,90.71,97.13,91ZM17,90l-.62-.79.4-.31c.2.27.41.53.62.79ZM99.61,87.8l-.41-.3.57-.81.41.29Zm-85-1c-.19-.28-.38-.56-.56-.84l.41-.27.56.83Zm87.2-2.3-.43-.26.51-.86.43.26ZM12.48,83.34c-.16-.29-.33-.58-.49-.88l.44-.24c.16.29.32.58.49.87Zm91.3-2.4-.44-.23c.15-.29.29-.59.44-.89l.45.22ZM10.61,79.77c-.15-.3-.29-.6-.42-.91l.45-.21.42.91Zm94.85-2.48L105,77.1c.12-.3.25-.61.37-.92l.46.18C105.71,76.67,105.59,77,105.46,77.29ZM9,76.07c-.12-.31-.24-.63-.35-.94L9.14,75c.11.31.23.62.35.93Zm97.83-2.55-.48-.16c.11-.31.21-.63.3-1l.48.15ZM7.72,72.26l-.27-1,.48-.13c.09.32.18.64.28,1Zm100.22-2.61-.48-.12c.07-.32.15-.65.22-1l.49.11C108.1,69,108,69.32,107.94,69.65ZM6.74,68.36c-.08-.33-.14-.65-.21-1l.49-.1c.07.33.13.65.2,1Zm102-2.66-.5-.08c.06-.32.11-.65.15-1l.5.07ZM6.05,64.4c0-.33-.09-.67-.12-1l.49-.06.12,1Zm103.16-2.69-.5,0c0-.33.05-.66.07-1l.5,0C109.25,61,109.23,61.38,109.21,61.71ZM5.67,60.4c0-.34,0-.67,0-1l.5,0c0,.34,0,.67,0,1Zm103.7-2.71h-.5v-.21c0-.33,0-.66,0-1h.5c0,.33,0,.67,0,1ZM6.1,56.38H5.6l0-1,.5,0ZM108.72,53.5c0-.33,0-.66-.08-1l.5,0c0,.34.06.67.08,1ZM6.34,52.41l-.5,0c0-.33.07-.67.11-1l.5.06C6.41,51.75,6.37,52.08,6.34,52.41Zm101.93-2.86c0-.33-.11-.66-.17-1l.5-.08c.05.33.11.66.16,1ZM6.88,48.46l-.49-.08.18-1,.49.09ZM107.5,45.64c-.07-.33-.15-.65-.24-1l.49-.12.24,1ZM7.73,44.57l-.49-.12c.09-.33.17-.65.26-1l.49.13C7.9,43.93,7.81,44.25,7.73,44.57Zm98.71-2.77c-.1-.32-.21-.64-.32-.95l.48-.16c.11.32.21.64.31,1Zm-97.56-1-.48-.17c.11-.31.22-.63.34-.94l.47.17C9.1,40.13,9,40.44,8.88,40.76Zm96.19-2.71c-.12-.31-.25-.62-.38-.93l.45-.19c.14.31.27.62.4.93Zm-94.75-1-.46-.2c.13-.31.26-.61.4-.91l.46.2C10.58,36.44,10.45,36.75,10.32,37.05Zm93.1-2.63c-.15-.3-.3-.6-.46-.89l.44-.24.47.9ZM12,33.47l-.44-.24.47-.88.44.24C12.35,32.88,12.19,33.17,12,33.47Zm89.45-2.55c-.17-.28-.35-.56-.53-.84l.43-.27c.18.28.35.57.53.86ZM14,30l-.42-.27c.18-.28.36-.57.55-.84l.41.27ZM99.3,27.6l-.59-.81.4-.3.59.81Zm-83-.85-.4-.3.61-.8.39.31Zm80.56-2.3c-.21-.26-.43-.51-.65-.76l.38-.33c.22.25.44.51.65.77Zm-78-.8-.38-.33.67-.75.37.34C19.24,23.16,19,23.4,18.8,23.65ZM94.17,21.5l-.7-.71.35-.35c.24.23.47.47.71.71Zm-72.64-.74-.35-.36.73-.69.34.36Zm69.75-2-.76-.64.32-.39.76.66Zm-66.8-.68-.32-.38.78-.64.31.39Zm63.7-1.82-.8-.59.29-.4.81.59Zm-60.55-.62-.29-.4.83-.58.28.41ZM84.9,14l-.85-.53.26-.42.86.52ZM31,13.45,30.71,13l.87-.51.25.44ZM81.46,12l-.89-.45.23-.45.89.46Zm-47-.48-.23-.45.91-.44.22.45Zm43.41-1.24L77,9.91l.19-.46c.31.12.61.25.92.39ZM38.09,9.88l-.19-.47L38.84,9l.18.47Zm36.07-1-1-.32.16-.47.95.32ZM41.84,8.52,41.69,8l1-.3.15.48C42.48,8.32,42.16,8.41,41.84,8.52Zm28.5-.81-1-.23L69.49,7l1,.24ZM45.68,7.45,45.57,7l1-.22.11.49C46.33,7.3,46,7.38,45.68,7.45Zm20.77-.58-1-.16.08-.5,1,.17ZM49.59,6.69l-.07-.49,1-.14.07.49ZM62.5,6.33l-1-.08,0-.5c.34,0,.67,0,1,.09Zm-9-.09,0-.5c.34,0,.67,0,1-.06l0,.49Zm5-.14h-1v-.5h1Z"/><path class="cls-1" d="M64.33,18.52a2.55,2.55,0,0,1,1,1.4,1.54,1.54,0,0,0,1.52,1.29,4,4,0,0,1,1.77.61C68.31,19.62,66.16,18,64.33,18.52Zm3.3,2.12a.65.65,0,0,1-.61.27,1.77,1.77,0,0,1-1.35-.82.93.93,0,0,1-.14-.54c0-.48.11-.56.57-.41a2.5,2.5,0,0,1,1.36,1C67.56,20.28,67.76,20.42,67.63,20.64Z"/><path class="cls-1" d="M80.36,33.54a23.82,23.82,0,0,0-2.61-7.69,23.58,23.58,0,0,0-5.16-6.58,22.35,22.35,0,0,0-4.47-3.05A19.41,19.41,0,0,0,66,15.31a3.28,3.28,0,0,1-.46-.27,1.93,1.93,0,0,1-.59-.8,3.13,3.13,0,0,1-.09-1.12s0-.93.13-1.68v-.13c.12-1,.22-1.71-.21-2s-1.37,0-3.18,1a9.51,9.51,0,0,0-3,2.79,3.71,3.71,0,0,1-.29.37l-.08,0a13.18,13.18,0,0,1-1.87.22,22.74,22.74,0,0,0-6,44.45l0,0A1.86,1.86,0,0,1,51,59.47a14.77,14.77,0,0,1-.1,2.1,11.34,11.34,0,0,0-.1,1.75c0,.42.18.55.59.48a3.28,3.28,0,0,0,.68-.19,11.63,11.63,0,0,0,3.38-2.15,6.09,6.09,0,0,0,1.49-1.75.79.79,0,0,1,.78-.47A21.55,21.55,0,0,0,61.1,59a23.44,23.44,0,0,0,6.77-2,20.39,20.39,0,0,0,6.47-4.73,20.78,20.78,0,0,0,2.24-2.88,25.38,25.38,0,0,0,3.28-7.62,18.93,18.93,0,0,0,.64-3.63A23,23,0,0,0,80.36,33.54ZM47,51.28a4.25,4.25,0,0,0,1.92.64,1.48,1.48,0,0,1,1.38,1.24,2.6,2.6,0,0,0,1,1.43C49.8,54.93,47.52,54.21,47,51.28ZM75.48,24.43a3.06,3.06,0,0,1-.93,1.15A7.49,7.49,0,0,1,71.11,27a20,20,0,0,1-4.83.16c-.15,0-.34-.06-.4.09s.12.24.23.33a19,19,0,0,1,2.21,1.89,23.37,23.37,0,0,1,3.42,4.19,12.43,12.43,0,0,1,1.75,4,6.87,6.87,0,0,1,.12,2,5.08,5.08,0,0,1-.56-1A6.89,6.89,0,0,0,70.57,36c-.08-.07-.2-.15-.3-.06s0,.21,0,.31c.17.51.33,1,.48,1.52a12.56,12.56,0,0,1,.58,4.91A9,9,0,0,1,69.67,47a14.39,14.39,0,0,1-4.13,3.72,26.57,26.57,0,0,1-2.4,1.32c-.17.12-.36.2-.53.32s-.07.05-.11.05l.08,0c.21-.11.36-.3.56-.42a8.34,8.34,0,0,0,1.59-1.92,6.9,6.9,0,0,0,1-2.86c0-.54,0-1.08,0-1.61a10.57,10.57,0,0,0-.45-2.08,15.41,15.41,0,0,0-2.22-4.23,13.29,13.29,0,0,0-1.31-1.56c-.81-.8-1.2-1.22-1.2-1.22a23.88,23.88,0,0,0-3-2.56c.16.92.35,1.76.45,2.62v0l.39,2.5L56.67,37h0a.91.91,0,0,0-.11-.16c-.24-.31-.52-.6-.77-.9a27.43,27.43,0,0,1-3.89-5.77,10.28,10.28,0,0,1-1.21-4.65A5.54,5.54,0,0,1,51.94,22c.11-.13.58-.57.44-.83s-.45,0-.45,0a33.28,33.28,0,0,0-3,1.85,15.44,15.44,0,0,0-3,2.78A8,8,0,0,0,44,30.39,14.21,14.21,0,0,0,44.52,35c.17.66.37,1.3.58,2a7.14,7.14,0,0,1-2.47-2.66,7.47,7.47,0,0,0-.49-.93c-.06-.08-.12-.19-.24-.15s-.11.13-.13.22a3.64,3.64,0,0,0-.07.81,8.88,8.88,0,0,0,.55,2.54,20,20,0,0,0,4.34,6.49,22.08,22.08,0,0,0,2.8,2.47c-.41,0-.79-.08-1.17-.07-.78,0-1.55,0-2.33.06a10.76,10.76,0,0,0-4,1,3.89,3.89,0,0,0-2.1,2.06,1.17,1.17,0,0,0-.12.46.87.87,0,0,0,.12.42,1.44,1.44,0,0,0,.54.44c.77.4,1.57.7,2.36,1a14.78,14.78,0,0,1,2.46,1.21,1.69,1.69,0,0,1,.73.85,7.48,7.48,0,0,0,2.59,3.37c.35.25.7.52,1,.8a22.25,22.25,0,0,1,6.88-43.14A12.48,12.48,0,0,0,58.35,14h0a1.34,1.34,0,0,0,.39-.08,3.38,3.38,0,0,0,.39-.47,8.86,8.86,0,0,1,2.8-2.63c.57-.31,2.28-1.27,2.53-1.07s.06.95,0,1.49l0,.14c-.09.77-.12,1.69-.12,1.71a3.44,3.44,0,0,0,.13,1.4,2.67,2.67,0,0,0,.76,1,6.19,6.19,0,0,0,.62.36c.19.15.38.31.56.44.42.31.85.62,1.25,1A7.5,7.5,0,0,1,69.43,20a1.88,1.88,0,0,0,.75.92A18,18,0,0,0,72.32,22c.9.39,1.84.7,2.71,1.15A.86.86,0,0,1,75.48,24.43Z"/><path class="cls-1" d="M48.48,52.19a.63.63,0,0,0-.58.28c-.12.22.08.36.17.5a2.66,2.66,0,0,0,1.36,1c.46.15.63,0,.61-.47a.3.3,0,0,0,0-.1A1.61,1.61,0,0,0,48.48,52.19Z"/></g></g></svg>