<svg xmlns="http://www.w3.org/2000/svg" viewBox="0 0 791.26 938"><defs><style>.cls-1{fill:#ffffff;}</style></defs><g id="Layer_2" data-name="Layer 2"><g id="Layer_1-2" data-name="Layer 1"><path class="cls-1" d="M513,161c7.54,6.72,14.37,14,16.25,24.11,2.76,14.75,13.36,20.7,26.21,22.17,10.88,1.24,20.67,4.12,30.3,10.3C581.28,179.89,544.51,151.58,513,161Zm56.67,36.39c-2.22,3.86-6,4.46-10.49,4.64-9.5-1.12-17.65-5.31-23.09-14a16.56,16.56,0,0,1-2.51-9.4c.22-8.24,2-9.48,9.77-7a43.69,43.69,0,0,1,23.4,17.16C568.44,191.24,571.88,193.56,569.69,197.38Z"/><path class="cls-1" d="M788,418.69c-7.1-46.62-22.59-90.44-44.82-132-22.9-42.77-52-80.61-88.47-112.74a381,381,0,0,0-76.55-52.36A343,343,0,0,0,542.22,106a72.63,72.63,0,0,1-7.92-4.6C530,98,527,94,524.15,87.61c-1.86-4.13-1.86-13.79-1.41-19.2,0-.15.52-15.95,2.1-28.82l.27-2.23c2.08-16.4,3.7-29.34-3.61-35C513.12-4,498,2.67,467,20c-27.13,15.22-42.84,36.46-51.27,47.87a64.91,64.91,0,0,1-5,6.37,7.16,7.16,0,0,1-1.32.67,199.28,199.28,0,0,1-32.17,3.71C165.68,87.86,0,259.37,0,469.12c0,170.06,112.12,320.56,274.41,372,.14.15.31.27.45.42a32.77,32.77,0,0,1,9.3,21.91c.47,12-.59,24-1.82,35.92-1,10-2.15,20-1.6,30.12.39,7.22,3,9.39,10,8.24a57.24,57.24,0,0,0,11.71-3.36c21.7-8.61,40.7-21.6,58.08-36.9,9.88-8.7,19.41-18.06,25.44-30,3-6,7.36-8.05,13.41-8,19.61.31,39-2,58.37-4.74,40.34-5.71,79.21-16.61,116.12-34,42.16-19.86,79.4-46.43,110.91-81a370.64,370.64,0,0,0,38.48-49.45,438.65,438.65,0,0,0,56.19-130.77c5.15-20.45,9.92-41.23,10.92-62.12S792.54,448.69,788,418.69ZM215.21,722.91c10.5,7.42,21.47,9.32,32.88,11,11.74,1.74,21.24,7.89,23.72,21.19,1.93,10.36,8.69,17.79,16.49,24.62C263.87,785.47,224.67,773.16,215.21,722.91Zm489-460.52c-3.4,8.06-9.16,14.32-15.89,19.7-17.31,13.85-37.73,20.25-59.1,24.09-27.44,4.94-55.09,4.4-82.77,2.72-2.49-.15-5.83-.95-6.92,1.53-1.22,2.8,2.12,4.21,4,5.6a342.47,342.47,0,0,1,37.88,32.51c22.12,21.8,42,45.49,58.71,71.81,13.46,21.24,24.53,43.51,30,68.26,2.45,11,2.65,22,1.9,34.13a103.63,103.63,0,0,1-9.61-17.06c-9.09-19.83-25.26-33-42.4-45.22-1.51-1.08-3.47-2.57-5.25-1s-.59,3.68,0,5.44c3,8.6,5.63,17.33,8.19,26.06,8.07,27.48,13.13,55.26,10.08,84.18a154.46,154.46,0,0,1-28.62,75.11c-18.92,26.39-43.5,46.59-70.71,63.85-13.26,8.42-27.19,15.6-41.2,22.66-2.85,2.06-6.17,3.33-9,5.35-.69.25-1.19.92-2,.84a3.83,3.83,0,0,0,1.37-.64c3.6-1.92,6.32-5,9.72-7.24,10.6-9.68,20-20.45,27.29-32.82,15.72-26.68,16.73-47.21,17.16-49.06.57-9.23.12-18.47.24-27.72a187.77,187.77,0,0,0-7.71-35.62c-8.46-26.42-22.16-50.07-38.1-72.56-2.06-2.08-8.47-12.95-22.43-26.73s-20.58-21-20.58-21c-.47-.74-33.61-32.62-51.81-43.78,2.84,15.76,6.05,30.16,7.68,44.83.06.25.13.49.19.73l6.73,42.83-29.66-36.81h0a17.78,17.78,0,0,0-1.86-2.73c-4.13-5.39-8.89-10.23-13.25-15.42-25.77-30.64-49.37-62.78-66.77-99-12.06-25.12-21-51.07-20.75-79.67.18-22.95,7.25-42.84,21.46-60.57,1.86-2.33,10-9.82,7.56-14.22-1.71-3.12-7.64-.13-7.64-.13-17.67,9.84-35.12,20.06-51.68,31.74-19.4,13.69-37,29.36-52.06,47.79-18.88,23.17-30.21,49.58-32.12,79.53-1.71,26.71,1.8,53,8.7,78.79,3,11.19,6.34,22.27,9.92,34.31-17.64-12.88-33.15-26.35-42.35-45.75-2.57-5.42-5.06-10.91-8.46-15.89-1-1.41-1.92-3.23-4-2.65-1.74.49-1.89,2.29-2.15,3.82-.76,4.59-1.59,9.18-1.22,13.86,1.19,14.94,3.91,29.54,9.33,43.58,16.46,42.72,43.48,78.39,74.54,111.29a371.25,371.25,0,0,0,48,42.33c-7,.74-13.47-1.31-20-1.13-13.34.37-26.67-.05-40,1-23.6,1.85-46.52,6.23-67.89,16.54-15.8,7.62-29.34,18.06-36,35.25-1.13,3-1.95,5.15-1.95,7.9a15.52,15.52,0,0,0,1.95,7.21,25.3,25.3,0,0,0,9.35,7.62c13.08,6.84,26.92,11.89,40.5,17.55,14.48,6,28.87,12.23,42.15,20.78,5.72,3.69,9.87,8.08,12.49,14.62,9.34,23.34,23.85,42.89,44.35,57.74,6.11,4.42,12.08,9,17.85,13.79C110.2,772,8.58,629.3,8.58,469.12c0-205.15,162.08-372.9,369-381.88a209.81,209.81,0,0,0,32.93-3.8h0A26.67,26.67,0,0,0,417.2,82c1.78-1.49,3.71-4.12,6.64-8.08,8-10.8,22.86-30.91,48.09-45.07,9.66-5.4,39-21.83,43.4-18.45,2.71,2.08.93,16.29-.25,25.68l-.28,2.25c-1.66,13.35-2.15,29.1-2.15,29.48-.14,1.62-1.29,16.08,2.29,24s7.49,13.18,13.12,17.59a86,86,0,0,0,10.5,6.16c3.25,2.7,6.54,5.33,9.59,7.57,7.35,5.37,14.72,10.72,21.45,16.88,14,12.83,23.65,28.6,30.85,45.95a32.47,32.47,0,0,0,13,15.78c11.69,7.35,24.06,13.29,36.66,18.8,15.43,6.76,31.51,12,46.49,19.79C706.77,245.56,708.74,251.77,704.25,262.39Z"/><path class="cls-1" d="M241.19,738.56c-4,.2-7.81,1-9.93,4.83s1.29,6.1,3,8.59c5.7,8.44,13.7,14,23.25,17.34,7.91,2.73,10.78.44,10.44-8.06a17,17,0,0,0-.29-1.71C266,748.46,253.42,738.48,241.19,738.56Z"/></g></g></svg>